<svg xmlns="http://www.w3.org/2000/svg" width="512" height="512" viewBox="0 0 512 512">
  <defs>
    <linearGradient id="bg" x1="0%" y1="0%" x2="100%" y2="100%">
      <stop offset="0%" style="stop-color:#1e293b"/>
      <stop offset="100%" style="stop-color:#0f172a"/>
    </linearGradient>
  </defs>
  <rect width="512" height="512" rx="96" fill="url(#bg)"/>
  <!-- C letter shape representing Continuity -->
  <path d="M320 160 C380 160 400 200 400 220 C400 230 395 235 385 235 C375 235 370 230 368 220 C360 195 340 185 320 185 C280 185 250 215 250 256 C250 297 280 327 320 327 C340 327 360 317 368 292 C370 282 375 277 385 277 C395 277 400 282 400 292 C400 312 380 352 320 352 C265 352 220 310 220 256 C220 202 265 160 320 160Z" fill="#38bdf8"/>
  <!-- Checkmark for task completion -->
  <path d="M200 260 L235 295 L310 220" stroke="#34d399" stroke-width="22" stroke-linecap="round" stroke-linejoin="round" fill="none"/>
</svg>
